<svg id="Layer_1" data-name="Layer 1" xmlns="http://www.w3.org/2000/svg" width="13.548cm" height="1.882cm" viewBox="0 0 384.049 53.342">
  <g>
    <path d="M77.5,9.88l-3.327,0a18.024,18.024,0,0,0-.537,0,3.118,3.118,0,0,1-2.75-3.107l0-.2.024-.236.345-3.632.059-.241a2.394,2.394,0,0,1,.292-.783A2.976,2.976,0,0,1,74.239.025l.335,0c.117-.008.593-.008.709,0l4.2.006h3.3c.089-.006.177,0,.27,0s.178-.009.266,0a3.118,3.118,0,0,1,2.75,3.11l0,.2-.022.233L85.7,7.2l-.058.241a2.413,2.413,0,0,1-.292.786,2.973,2.973,0,0,1-2.622,1.656l-.34,0c-.115.008-.592.008-.711,0Zm5.332,4.552a2.862,2.862,0,0,1,.87.511,2.589,2.589,0,0,1,.745,1.112,5.24,5.24,0,0,1,.25,1.279l-.622,5.333L80.716,49.534c-.133,2.077-1.519,3.71-3.2,3.71-.1,0-.188,0-.28-.011-.433.031-.82.023-.82.023l-7.6-.006a2.953,2.953,0,0,1-.349-.017,3,3,0,0,1-2.725-3.222l0-.194a3.525,3.525,0,0,1,.059-.508l3.8-32.224a3.15,3.15,0,0,1,3.019-3.057l8.19,0A7.266,7.266,0,0,1,82.836,14.432Zm253.8,35.705v-2.95a2.953,2.953,0,0,1,.719-2l9.239-11.16L366.315,9.782l-11.368,0a1.407,1.407,0,0,0-1.282,1.215l-.582,4.12a4.313,4.313,0,0,1-.939,1.258,4.114,4.114,0,0,1-1.513.5H344.15a3.16,3.16,0,0,1-3.122-3.256l0-.371.421-8.555A4.484,4.484,0,0,1,345.658.056L381.015.05a3.31,3.31,0,0,1,3.027,3.416l.007.4,0,4.556a1.936,1.936,0,0,1-.532,1.356l-9.359,11.451-18.1,21.778,9.206,0a.7.7,0,0,0,.394-.1.749.749,0,0,0,.147-.328l.955-6.116a3.1,3.1,0,0,1,2.976-2.723l6.751,0a3.391,3.391,0,0,1,3.383,3.477,3.722,3.722,0,0,1-.093.837l-.545,4.188L378.4,49.8l-.035.3a3.659,3.659,0,0,1-3.584,3.165l-34.562-.011a2.62,2.62,0,0,1-.424-.005A3.2,3.2,0,0,1,336.64,50.137ZM128.6.508a7.92,7.92,0,0,1,1.754.9,7.363,7.363,0,0,1,1.707,1.459,7.815,7.815,0,0,1,1.417,2.187,8.289,8.289,0,0,1,.626,1.717,13.481,13.481,0,0,1,.293,3.048c.345,6.041-2.13,15.356-2.13,15.356a16.453,16.453,0,0,1-.709,1.889,7.972,7.972,0,0,1-1.042,1.718,7.6,7.6,0,0,1-1.794,1.676,7.283,7.283,0,0,1-1.83,1.027,8.53,8.53,0,0,1-1.92.472,21.789,21.789,0,0,1-3.507.176L105.8,32.115l-2.521,17.694c-.307,2.01-1.614,3.418-3.184,3.418l-.267-.011H92.312a3.1,3.1,0,0,1-2.985-3.32L94.958,5.145a8.333,8.333,0,0,1,.5-2.661,4.2,4.2,0,0,1,1-1.418,3.73,3.73,0,0,1,1.21-.814A6.354,6.354,0,0,1,99.584-.09l26.221,0A14.6,14.6,0,0,1,128.6.508ZM119.554,12.6a32.331,32.331,0,0,1-1.335,8.1,2.269,2.269,0,0,1-2,1.546l-.727,0h-8.5l1.666-12.372,8.922-.051a3.181,3.181,0,0,1,.382.051,1.007,1.007,0,0,1,.37.129,2.41,2.41,0,0,1,1.185,1.869C119.537,12.066,119.546,12.4,119.554,12.6ZM268.509,9.936,257.957,9.93a2.522,2.522,0,0,0-2.592,2.08l-3.612,28.733a2.456,2.456,0,0,0,2.2,2.363l.719.017h9.945l.233.008a2.53,2.53,0,0,0,2.589-2.032l.965-8.6.017-.3-5.985,0a5.461,5.461,0,0,1-.952-.424,2.84,2.84,0,0,1-.955-.895,3.3,3.3,0,0,1-.414-.9,5.594,5.594,0,0,1-.245-1.962,8.821,8.821,0,0,1,.122-1.92,5.461,5.461,0,0,1,.414-1.749,3.8,3.8,0,0,1,.537-.9l.167-.21a3.259,3.259,0,0,1,1.2-.9,6.714,6.714,0,0,1,2.322-.427l14.753.006a4.633,4.633,0,0,1,1.243.463,2.6,2.6,0,0,1,.869.9,3.126,3.126,0,0,1,.454,1.322,7.477,7.477,0,0,1,.04,1.28l-2.277,18.429s-.169.817-.329,1.325a9.453,9.453,0,0,1-1.162,2.43,9.863,9.863,0,0,1-1.533,1.965,9.453,9.453,0,0,1-1.906,1.535,8.838,8.838,0,0,1-2.322,1.109,7.211,7.211,0,0,1-2.072.424c-1.2.081-2.984.095-2.984.095l-17.317-.008a19.874,19.874,0,0,1-2.156-.385,10.049,10.049,0,0,1-2.117-.766,9.529,9.529,0,0,1-2.4-1.58,10.627,10.627,0,0,1-1.575-1.665,11.311,11.311,0,0,1-.747-1.021,9.357,9.357,0,0,1-1.252-2.563,10.086,10.086,0,0,1-.486-2.644c-.056-.628-.042-1.622-.042-1.622L242.99,9.273a8.96,8.96,0,0,1,.5-2.032,8.687,8.687,0,0,1,1.412-2.388,10.109,10.109,0,0,1,1.821-1.92A10.685,10.685,0,0,1,248.512,1.7,10.878,10.878,0,0,1,251,.587a9.537,9.537,0,0,1,2.414-.523c.427-.036,1.095-.033,1.095-.033l18.573.008.421,0a16.172,16.172,0,0,1,2.486.46,9.019,9.019,0,0,1,1.988.851,9.4,9.4,0,0,1,1.867,1.325A9.489,9.489,0,0,1,281.58,4.6a10.673,10.673,0,0,1,1.038,1.791,10.575,10.575,0,0,1,.935,2.565,6.806,6.806,0,0,1,.185,2.555L283,17.478a.6.6,0,0,1-.11.238.779.779,0,0,1-.238.121l-11.494,0s-.458-.039-.6-.253a1.023,1.023,0,0,1-.089-.488l.615-4.46a3.274,3.274,0,0,0,.025-.368,1.268,1.268,0,0,0-.031-.373A2.539,2.539,0,0,0,268.509,9.936Zm-101.75,1.782a5.867,5.867,0,0,1,0,1.286,28.43,28.43,0,0,1-1.05,5.97,5.647,5.647,0,0,1-.428,1.15,1.42,1.42,0,0,1-1.318.887l-.165,0H154l1.328-10.988,9.651.008.195.011A1.682,1.682,0,0,1,166.759,11.718ZM173.675.323a8.8,8.8,0,0,1,1.747.544,8.717,8.717,0,0,1,2.251,1.451,6.788,6.788,0,0,1,2.095,3.113,21.516,21.516,0,0,1,.466,3.971,35.715,35.715,0,0,1-.958,8.716,15.952,15.952,0,0,1-1.336,4.53,10.423,10.423,0,0,1-1.3,2.094,5.158,5.158,0,0,1-1.332,1.1,7.538,7.538,0,0,1-1.65.772c-.648.222-1.753.509-1.753.509a5.389,5.389,0,0,1,1.373.575,3.188,3.188,0,0,1,1.158,1.226,5.205,5.205,0,0,1,.434,1.016l.119.4,2.88,19.215-.209,1.258-.623,1.069-1,.9-1.078.455-8.035-.008h-.274a4.266,4.266,0,0,1-3.91-3.815l-1.609-16.17-.914-.9-.623-.171h-6.933l-1.787,13.6-.589,4.1c-.218,1.97-1.56,3.486-3.183,3.486a2.625,2.625,0,0,1-.3-.017H139.2l-.209.008a3.014,3.014,0,0,1-2.736-3.227l.007-.236,0-.306,5.773-45.916.623-1.58.536-.64,1.62-.943,3.488-.469L172.141.05S173.086.182,173.675.323Zm10.6,47.861.106-.236L205.154,2.094A4.538,4.538,0,0,1,206.13.9,3.817,3.817,0,0,1,207.421.21,7.126,7.126,0,0,1,208.379,0l14.329,0A4.213,4.213,0,0,1,224.4.468a3.808,3.808,0,0,1,1.291,1.241,6.283,6.283,0,0,1,.793,1.726l5.721,45.58a4.025,4.025,0,0,1,.059.693,3.3,3.3,0,0,1-3.034,3.508,2.58,2.58,0,0,1-.305,0l-7.849,0a2.063,2.063,0,0,1-.236,0,3.012,3.012,0,0,1-2.688-3l-1-7.547h-17.4l-4.155,8.957a2.568,2.568,0,0,1-2.5,1.613l-.567.009-4.627,0h-.522a3.48,3.48,0,0,1-3.386-3.587A3.787,3.787,0,0,1,184.271,48.184Zm31.346-16.659-10.9,0,8.364-18.932.123.214Zm67.6,16.791.1-.236L304.168,2.085a4.6,4.6,0,0,1,.98-1.2A3.773,3.773,0,0,1,306.439.2a7.233,7.233,0,0,1,.962-.213l14.369.005a4.2,4.2,0,0,1,1.694.466,3.78,3.78,0,0,1,1.3,1.246,6.187,6.187,0,0,1,.8,1.732l5.738,45.714a4.175,4.175,0,0,1,.059.694,3.308,3.308,0,0,1-3.043,3.519,2.782,2.782,0,0,1-.306-.017l-7.874,0-.237.014a3.03,3.03,0,0,1-2.7-3.014l-1-7.567H298.743l-4.167,8.982a2.574,2.574,0,0,1-2.514,1.619l-.567.006h-5.163a3.5,3.5,0,0,1-3.4-3.6A3.861,3.861,0,0,1,283.22,48.316Zm31.44-16.709L303.727,31.6l8.389-18.99.122.216Z" fill="#01438f" fill-rule="evenodd"/>
    <path d="M40.591,53.39H0V11A33.411,33.411,0,0,1,36.976,27.13,34.679,34.679,0,0,1,41.5,44.335,34.214,34.214,0,0,1,40.591,53.39Z" fill="#d51130" fill-rule="evenodd"/>
    <path d="M8.434,5.768A37.025,37.025,0,0,1,40.653,24.652a38.373,38.373,0,0,1,5.005,19.035c0,1.117-.013,2.217-.061,3.3l5.55-5.816V.025H12l-5.872,5.8S7.659,5.768,8.434,5.768Z" fill="#01438f" fill-rule="evenodd"/>
  </g>
</svg>
